<?xml version="1.0" encoding="UTF-8"?>
<svg version="1.1" xmlns="http://www.w3.org/2000/svg" width="116" height="96">
<path d="M0 0 C1.32212494 -0.01441132 1.32212494 -0.01441132 2.67095947 -0.02911377 C3.62613464 -0.03336365 4.58130981 -0.03761353 5.56542969 -0.04199219 C7.03807281 -0.0505423 7.03807281 -0.0505423 8.54046631 -0.05926514 C10.62185587 -0.06872356 12.70326047 -0.07525245 14.78466797 -0.07910156 C17.96055498 -0.08878562 21.135789 -0.11979238 24.31152344 -0.15136719 C26.33365501 -0.15789937 28.35579122 -0.163149 30.37792969 -0.16699219 C31.32500793 -0.17933899 32.27208618 -0.19168579 33.24786377 -0.20440674 C39.40384531 -0.1837421 43.89588492 0.54011667 48.60058594 4.87988281 C49.07882813 5.46769531 49.55707031 6.05550781 50.04980469 6.66113281 C50.78650391 7.54285156 50.78650391 7.54285156 51.53808594 8.44238281 C53.55332527 11.33067371 53.86844439 13.90665612 53.91430664 17.32202148 C53.93355949 18.5742878 53.93355949 18.5742878 53.95320129 19.85185242 C53.96058823 20.75184464 53.96797516 21.65183685 53.97558594 22.57910156 C53.98365768 23.51031326 53.99172943 24.44152496 54.00004578 25.4009552 C54.01387833 27.37381127 54.02460419 29.3466912 54.0324707 31.31958008 C54.04964065 34.31996795 54.0935291 37.3192414 54.13769531 40.31933594 C54.14782655 42.23924974 54.1563413 44.15917288 54.16308594 46.07910156 C54.18059402 46.96897263 54.19810211 47.85884369 54.21614075 48.77568054 C54.19564143 54.73583152 53.07229536 59.16701596 49.73730469 64.16113281 C47.77246094 66.00097656 47.77246094 66.00097656 45.79980469 67.09863281 C45.15140625 67.47890625 44.50300781 67.85917969 43.83496094 68.25097656 C38.95710927 70.36743734 33.92934241 70.33390023 28.69042969 70.36425781 C27.91979187 70.36995789 27.14915405 70.37565796 26.35516357 70.38153076 C24.72800048 70.39094917 23.10081858 70.39750214 21.47363281 70.40136719 C19.0090934 70.41104723 16.54539786 70.44208922 14.08105469 70.47363281 C-3.84149021 70.59713383 -3.84149021 70.59713383 -10.38378906 65.51269531 C-11.03541016 64.65804687 -11.03541016 64.65804687 -11.70019531 63.78613281 C-12.15265625 63.22152344 -12.60511719 62.65691406 -13.07128906 62.07519531 C-16.38079558 56.7582832 -16.582578 52.0874518 -16.59863281 45.98535156 C-16.60861801 44.65936699 -16.60861801 44.65936699 -16.61880493 43.30659485 C-16.6289084 41.4398506 -16.63362267 39.57307039 -16.63330078 37.70629883 C-16.63766497 34.86836341 -16.67398336 32.03199559 -16.71191406 29.19433594 C-16.71778473 27.37467976 -16.72175245 25.55501624 -16.72363281 23.73535156 C-16.73800385 22.89550217 -16.75237488 22.05565277 -16.7671814 21.19035339 C-16.71828895 14.80108631 -15.30403001 9.29401506 -10.74447632 4.59721375 C-7.08485827 1.46873416 -4.74193419 0.0416768 0 0 Z " fill="#4962F9" transform="translate(37.2626953125,10.8388671875)"/>
<path d="M0 0 C2.5 0.125 2.5 0.125 3.5 1.125 C3.58861992 3.9366338 3.61522355 6.72358255 3.59765625 9.53515625 C3.5962413 10.37719101 3.59482635 11.21922577 3.59336853 12.08677673 C3.58775263 14.78705335 3.57519748 17.48724828 3.5625 20.1875 C3.55748705 22.01367068 3.55292379 23.83984266 3.54882812 25.66601562 C3.53777804 30.15237542 3.52050279 34.63867384 3.5 39.125 C1.5085944 39.50633299 -0.49279077 39.83825582 -2.5 40.125 C-4.34276509 38.28223491 -3.62874411 35.69536241 -3.63894653 33.24365234 C-3.6369223 32.42074707 -3.63489807 31.5978418 -3.6328125 30.75 C-3.63376923 29.91033691 -3.63472595 29.07067383 -3.63571167 28.20556641 C-3.63639348 26.42675705 -3.63453917 24.64794523 -3.63037109 22.86914062 C-3.62502283 20.13666224 -3.63031605 17.40434824 -3.63671875 14.671875 C-3.63605797 12.9479163 -3.63477681 11.22395771 -3.6328125 9.5 C-3.63483673 8.67709473 -3.63686096 7.85418945 -3.63894653 7.00634766 C-3.61054191 0.1805271 -3.61054191 0.1805271 0 0 Z " fill="#FCFEFE" transform="translate(43.5,25.875)"/>
<path d="M0 0 C4.55555556 0.55555556 4.55555556 0.55555556 6 2 C6.24215865 6.39958247 6.22850329 10.80469474 6.24023438 15.21020508 C6.24994529 17.42502315 6.2809579 19.63891541 6.3125 21.85351562 C6.3190293 23.2552028 6.32428006 24.65689664 6.328125 26.05859375 C6.3374707 27.34048584 6.34681641 28.62237793 6.35644531 29.94311523 C6.23881836 30.95188721 6.12119141 31.96065918 6 33 C3 35 3 35 0.875 34.6875 C-1 34 -1 34 -2 33 C-2.21832989 28.60001055 -2.18579146 24.19465188 -2.18530273 19.78979492 C-2.18748751 17.57516218 -2.20563531 15.36102877 -2.22460938 13.14648438 C-2.22754356 11.74479338 -2.22952819 10.3431 -2.23046875 8.94140625 C-2.23457764 7.65951416 -2.23868652 6.37762207 -2.24291992 5.05688477 C-2 2 -2 2 0 0 Z " fill="#C5CEFD" transform="translate(69,31)"/>
<path d="M0 0 C4.70588235 0.70588235 4.70588235 0.70588235 6 2 C6.25156269 5.63899175 6.18522226 9.29083673 6.1875 12.9375 C6.19974609 13.96552734 6.21199219 14.99355469 6.22460938 16.05273438 C6.22654297 17.03435547 6.22847656 18.01597656 6.23046875 19.02734375 C6.23457764 19.93218506 6.23868652 20.83702637 6.24291992 21.76928711 C6 24 6 24 4 26 C1.375 25.625 1.375 25.625 -1 25 C-1.02886984 21.02084841 -1.04675406 17.04172347 -1.0625 13.0625 C-1.07087891 11.92619141 -1.07925781 10.78988281 -1.08789062 9.61914062 C-1.09111328 8.53955078 -1.09433594 7.45996094 -1.09765625 6.34765625 C-1.10289307 5.34742432 -1.10812988 4.34719238 -1.11352539 3.31665039 C-1 1 -1 1 0 0 Z " fill="#DAE2FD" transform="translate(55,40)"/>
<path d="M0 0 C2.5 0.125 2.5 0.125 3.5 1.125 C3.58861992 3.9366338 3.61522355 6.72358255 3.59765625 9.53515625 C3.5962413 10.37719101 3.59482635 11.21922577 3.59336853 12.08677673 C3.58775263 14.78705335 3.57519748 17.48724828 3.5625 20.1875 C3.55748705 22.01367068 3.55292379 23.83984266 3.54882812 25.66601562 C3.53777804 30.15237542 3.52050279 34.63867384 3.5 39.125 C1.5085944 39.50633299 -0.49279077 39.83825582 -2.5 40.125 C-4.34276509 38.28223491 -3.62874411 35.69536241 -3.63894653 33.24365234 C-3.6369223 32.42074707 -3.63489807 31.5978418 -3.6328125 30.75 C-3.63376923 29.91033691 -3.63472595 29.07067383 -3.63571167 28.20556641 C-3.63639348 26.42675705 -3.63453917 24.64794523 -3.63037109 22.86914062 C-3.62502283 20.13666224 -3.63031605 17.40434824 -3.63671875 14.671875 C-3.63605797 12.9479163 -3.63477681 11.22395771 -3.6328125 9.5 C-3.63483673 8.67709473 -3.63686096 7.85418945 -3.63894653 7.00634766 C-3.61054191 0.1805271 -3.61054191 0.1805271 0 0 Z M-2.5 1.125 C-2.5 13.335 -2.5 25.545 -2.5 38.125 C-1.18 38.125 0.14 38.125 1.5 38.125 C1.5 26.245 1.5 14.365 1.5 2.125 C0.18 1.795 -1.14 1.465 -2.5 1.125 Z " fill="#E1E9FE" transform="translate(43.5,25.875)"/>
<path d="M0 0 C4.55555556 0.55555556 4.55555556 0.55555556 6 2 C6.24215865 6.39958247 6.22850329 10.80469474 6.24023438 15.21020508 C6.24994529 17.42502315 6.2809579 19.63891541 6.3125 21.85351562 C6.3190293 23.2552028 6.32428006 24.65689664 6.328125 26.05859375 C6.3374707 27.34048584 6.34681641 28.62237793 6.35644531 29.94311523 C6.23881836 30.95188721 6.12119141 31.96065918 6 33 C3 35 3 35 0.875 34.6875 C-1 34 -1 34 -2 33 C-2.21832989 28.60001055 -2.18579146 24.19465188 -2.18530273 19.78979492 C-2.18748751 17.57516218 -2.20563531 15.36102877 -2.22460938 13.14648438 C-2.22754356 11.74479338 -2.22952819 10.3431 -2.23046875 8.94140625 C-2.23457764 7.65951416 -2.23868652 6.37762207 -2.24291992 5.05688477 C-2 2 -2 2 0 0 Z M1 2 C-0.57410012 6.17762903 -1.24126552 9.59724481 -1.1953125 14.0546875 C-1.18886719 15.16328125 -1.18242188 16.271875 -1.17578125 17.4140625 C-1.15902344 18.55617188 -1.14226562 19.69828125 -1.125 20.875 C-1.11597656 22.0403125 -1.10695313 23.205625 -1.09765625 24.40625 C-1.07417432 27.27104577 -1.04133141 30.13541535 -1 33 C-0.01 33.33 0.98 33.66 2 34 C4.31652492 32.11771631 4.31652492 32.11771631 4.22705078 29.01904297 C4.21657715 27.77268066 4.20610352 26.52631836 4.1953125 25.2421875 C4.1924826 24.57913605 4.18965271 23.91608459 4.18673706 23.23294067 C4.17553435 21.11344417 4.15043051 18.99436896 4.125 16.875 C4.11497028 15.43880818 4.10584441 14.00260975 4.09765625 12.56640625 C4.075595 9.04413372 4.04106494 5.52210797 4 2 C3.01 2 2.02 2 1 2 Z " fill="#A2B2FE" transform="translate(69,31)"/>
<path d="M0 0 C3.82225821 2.71581505 5.70327909 4.48672798 7 9 C7.28514481 12.26445931 7.28027088 15.51381479 7.265625 18.7890625 C7.26753845 19.72930267 7.2694519 20.66954285 7.27142334 21.63827515 C7.27278119 23.62018096 7.26911274 25.60209578 7.26074219 27.58398438 C7.25001308 30.62129585 7.26066338 33.65801907 7.2734375 36.6953125 C7.2721163 38.62239714 7.26955474 40.54948141 7.265625 42.4765625 C7.26967346 43.38596588 7.27372192 44.29536926 7.27789307 45.23233032 C7.27158875 46.0768576 7.26528442 46.92138489 7.25878906 47.79150391 C7.25719788 48.53365143 7.25560669 49.27579895 7.25396729 50.04043579 C7 52 7 52 5 55 C4.97494385 53.84064941 4.9498877 52.68129883 4.92407227 51.48681641 C4.82918676 47.14427523 4.7291715 42.80186417 4.62768555 38.45947266 C4.58464097 36.58775905 4.54294762 34.71601381 4.50268555 32.84423828 C4.4442362 30.1382498 4.38076599 27.43241612 4.31640625 24.7265625 C4.29969376 23.90322418 4.28298126 23.07988586 4.26576233 22.2315979 C4.12165528 16.45094407 3.64638333 10.74557686 3 5 C2.34 5 1.68 5 1 5 C0.67 3.35 0.34 1.7 0 0 Z " fill="#6274E4" transform="translate(84,15)"/>
<path d="M0 0 C0.33 0 0.66 0 1 0 C1.33 10.23 1.66 20.46 2 31 C5.74691447 32.39770584 5.74691447 32.39770584 8 31 C8.33 21.43 8.66 11.86 9 2 C9.33 2 9.66 2 10 2 C10.02465504 6.39656173 10.04283842 10.7930872 10.05493164 15.18969727 C10.05997121 16.68644918 10.06680287 18.18319616 10.07543945 19.67993164 C10.08752159 21.82699807 10.09323191 23.97399962 10.09765625 26.12109375 C10.10289307 27.4145874 10.10812988 28.70808105 10.11352539 30.04077148 C10 33 10 33 9 34 C7.1875 34.1328125 7.1875 34.1328125 5 34.125 C4.278125 34.12757812 3.55625 34.13015625 2.8125 34.1328125 C1 34 1 34 0 33 C-0.08843793 30.55169574 -0.11528752 28.13179401 -0.09765625 25.68359375 C-0.0962413 24.95253922 -0.09482635 24.22148468 -0.09336853 23.46827698 C-0.08775408 21.12464368 -0.07519922 18.78110461 -0.0625 16.4375 C-0.05748686 14.85221492 -0.05292363 13.26692834 -0.04882812 11.68164062 C-0.03777997 7.7877239 -0.02050572 3.89387795 0 0 Z " fill="#5367EA" transform="translate(66,33)"/>
<path d="M0 0 C2.875 -0.125 2.875 -0.125 6 0 C8 2 8 2 8.24291992 4.50610352 C8.23675659 6.05189087 8.23675659 6.05189087 8.23046875 7.62890625 C8.22853516 8.74587891 8.22660156 9.86285156 8.22460938 11.01367188 C8.21236328 12.18478516 8.20011719 13.35589844 8.1875 14.5625 C8.18685547 15.73748047 8.18621094 16.91246094 8.18554688 18.12304688 C8.14012141 26.85987859 8.14012141 26.85987859 7 28 C4.32941149 28.14115161 1.67567762 28.04247107 -1 28 C-1.33 26.68 -1.66 25.36 -2 24 C-0.515 24.99 -0.515 24.99 1 26 C2.65 25.67 4.3 25.34 6 25 C6 17.74 6 10.48 6 3 C4.35 2.67 2.7 2.34 1 2 C0.67 1.34 0.34 0.68 0 0 Z " fill="#4F62E1" transform="translate(54,39)"/>
<path d="M0 0 C0.66 0 1.32 0 2 0 C2 7.59 2 15.18 2 23 C1.34 22.67 0.68 22.34 0 22 C-0.19590444 18.52125243 -0.38031592 15.04199096 -0.5625 11.5625 C-0.61857422 10.56927734 -0.67464844 9.57605469 -0.73242188 8.55273438 C-0.78076172 7.60849609 -0.82910156 6.66425781 -0.87890625 5.69140625 C-0.9260376 4.81685791 -0.97316895 3.94230957 -1.02172852 3.04125977 C-1 1 -1 1 0 0 Z " fill="#7384F8" transform="translate(52,41)"/>
<path d="M0 0 C0.66 0.33 1.32 0.66 2 1 C1.67 1.99 1.34 2.98 1 4 C0.01 4 -0.98 4 -2 4 C-1.67 5.32 -1.34 6.64 -1 8 C-3.475 9.485 -3.475 9.485 -6 11 C-5.62671065 5.64951939 -4.0042343 3.49087093 0 0 Z " fill="#6475EC" transform="translate(29,13)"/>
</svg>
