<?xml version="1.0" encoding="UTF-8"?>
<svg version="1.1" xmlns="http://www.w3.org/2000/svg" width="305" height="87">
<path d="M0 0 C1.33763145 -0.02893593 1.33763145 -0.02893593 2.70228577 -0.05845642 C6.80245896 -0.11634237 10.90245599 -0.16552852 15.00292969 -0.19628906 C17.15901766 -0.21781272 19.3150196 -0.25184801 21.47070312 -0.29882812 C24.58820412 -0.36613644 27.70389435 -0.39334408 30.82202148 -0.41235352 C31.77548965 -0.44018417 32.72895782 -0.46801483 33.71131897 -0.49668884 C40.79792315 -0.47517275 45.44901852 1.38765457 50.69311523 6.20874023 C54.42334653 11.21813783 54.13061471 16.41622074 54.09155273 22.42749023 C54.09442291 23.40359253 54.09729309 24.37969482 54.10025024 25.38537598 C54.10228579 27.44287702 54.0967917 29.50039764 54.08422852 31.55786133 C54.06816791 34.69844027 54.08409487 37.83773234 54.10327148 40.97827148 C54.10128896 42.98218056 54.0974451 44.98608884 54.09155273 46.98999023 C54.09762543 47.92452026 54.10369812 48.85905029 54.10995483 49.82189941 C54.05401743 55.03390769 53.62802695 58.71587449 50.69311523 63.20874023 C44.17112318 69.44716741 39.15589997 70.51883214 30.48217773 70.50952148 C29.15263565 70.51594917 29.15263565 70.51594917 27.79623413 70.52250671 C25.92528129 70.528237 24.05430618 70.52875988 22.18334961 70.52441406 C19.33465157 70.52125855 16.4869972 70.54471383 13.63842773 70.57006836 C11.81551237 70.57234207 9.99259423 70.57304451 8.16967773 70.57202148 C7.32466705 70.58123123 6.47965637 70.59044098 5.60903931 70.59992981 C-0.48750128 70.55270916 -5.48256773 69.67786932 -10.23266602 65.52514648 C-10.6902832 64.94635742 -11.14790039 64.36756836 -11.61938477 63.77124023 C-12.32514648 62.90692383 -12.32514648 62.90692383 -13.04516602 62.02514648 C-15.37562383 58.67015304 -16.5534101 56.04704665 -16.61328125 51.93432617 C-16.62926865 51.0995575 -16.64525604 50.26478882 -16.66172791 49.40472412 C-16.66709061 48.50989319 -16.67245331 47.61506226 -16.67797852 46.69311523 C-16.68700699 45.76331848 -16.69603546 44.83352173 -16.70533752 43.87554932 C-16.71983402 41.90868342 -16.72872527 39.94176936 -16.73242188 37.97485352 C-16.74428868 34.98296535 -16.79345454 31.99316023 -16.84399414 29.00170898 C-16.8534625 27.08635442 -16.86069556 25.17098723 -16.86547852 23.25561523 C-16.88501083 22.36888123 -16.90454315 21.48214722 -16.92466736 20.56854248 C-16.87935914 14.25151826 -15.31636998 10.11297055 -11.30688477 5.20874023 C-7.5030251 1.75872798 -5.09667837 0.10300181 0 0 Z M4.69311523 17.20874023 C2.74163897 21.30839072 2.43590559 24.63440745 2.42749023 29.15405273 C2.42557678 29.80574432 2.42366333 30.45743591 2.42169189 31.12887573 C2.4203373 32.49876291 2.42398284 33.86866324 2.43237305 35.23852539 C2.4431184 37.33435778 2.4324361 39.42933989 2.41967773 41.52514648 C2.42099878 42.85978379 2.42356004 44.19442056 2.42749023 45.52905273 C2.42974609 46.73835449 2.43200195 47.94765625 2.43432617 49.19360352 C2.46472934 52.38780264 2.46472934 52.38780264 4.69311523 55.20874023 C6.66848268 54.86087315 6.66848268 54.86087315 8.69311523 54.20874023 C13.0737863 45.44739809 9.20729007 28.9397724 8.69311523 19.20874023 C7.37311523 18.54874023 6.05311523 17.88874023 4.69311523 17.20874023 Z M32.69311523 20.20874023 C28.11647673 24.78537874 29.50960572 33.29479281 29.50561523 39.39624023 C29.49336914 40.39333008 29.48112305 41.39041992 29.46850586 42.41772461 C29.46657227 43.37356445 29.46463867 44.3294043 29.46264648 45.31420898 C29.4585376 46.18198975 29.45442871 47.04977051 29.45019531 47.94384766 C29.54660932 50.49035314 29.54660932 50.49035314 31.69311523 53.20874023 C34.29251503 51.62313795 34.29251503 51.62313795 36.69311523 49.20874023 C37.37906148 46.22317997 37.37906148 46.22317997 37.18139648 42.91186523 C37.1652832 41.7065918 37.14916992 40.50131836 37.13256836 39.25952148 C37.06972656 37.37813477 37.06972656 37.37813477 37.00561523 35.45874023 C36.98305664 34.18901367 36.96049805 32.91928711 36.93725586 31.61108398 C36.87832162 28.47578251 36.79608603 25.34285428 36.69311523 22.20874023 C35.37311523 21.54874023 34.05311523 20.88874023 32.69311523 20.20874023 Z M18.69311523 29.20874023 C16.16257186 31.73928361 16.43628295 32.64422905 16.42749023 36.14624023 C16.42491211 37.12334961 16.42233398 38.10045898 16.41967773 39.10717773 C16.42741211 40.13069336 16.43514648 41.15420898 16.44311523 42.20874023 C16.43538086 43.23225586 16.42764648 44.25577148 16.41967773 45.31030273 C16.42225586 46.28741211 16.42483398 47.26452148 16.42749023 48.27124023 C16.42974609 49.1697168 16.43200195 50.06819336 16.43432617 50.99389648 C16.48502582 53.41416188 16.48502582 53.41416188 18.69311523 55.20874023 C20.78602681 55.12302362 20.78602681 55.12302362 22.69311523 54.20874023 C24.08507216 50.03286945 23.9171181 46.08275838 23.94311523 41.70874023 C23.96374023 40.84120117 23.98436523 39.97366211 24.00561523 39.07983398 C24.01077148 38.24581055 24.01592773 37.41178711 24.02124023 36.55249023 C24.03058594 35.79129883 24.03993164 35.03010742 24.04956055 34.24584961 C23.59922723 31.67216385 22.74418286 30.77918641 20.69311523 29.20874023 C20.03311523 29.20874023 19.37311523 29.20874023 18.69311523 29.20874023 Z " fill="#465FFC" transform="translate(229.306884765625,7.791259765625)"/>
<path d="M0 0 C0.99 2.64 1.98 5.28 3 8 C2.33613281 8.30292969 1.67226562 8.60585938 0.98828125 8.91796875 C-4.22621002 11.39199746 -8.23245597 13.60453197 -12 18 C-10.80375 17.938125 -9.6075 17.87625 -8.375 17.8125 C-4.22742862 17.81984083 -1.52646947 18.7036943 2 21 C4.98634485 24.18036666 5.36174299 26.33077281 5.29296875 30.640625 C5.28172974 32.08743652 5.28172974 32.08743652 5.27026367 33.56347656 C5.24295166 34.7800293 5.21563965 35.99658203 5.1875 37.25 C5.125625 41.1275 5.06375 45.005 5 49 C-7.54 49 -20.08 49 -33 49 C-33.33 51.97 -33.66 54.94 -34 58 C-36.24589325 60.99452434 -37.44869367 61.81623122 -41 63 C-46.29802777 63.38612745 -51.20180597 63.55903682 -56 61 C-55.38722388 58.03824877 -54.74627478 56.61941217 -53 54 C-51.906875 54.226875 -50.81375 54.45375 -49.6875 54.6875 C-46.19870091 55.34652295 -46.19870091 55.34652295 -44.30151367 53.9753418 C-42.36835304 51.04133267 -42.52005853 48.11095627 -42.48828125 44.70703125 C-42.47033005 44.00100266 -42.45237885 43.29497406 -42.43388367 42.56755066 C-42.37976822 40.31592759 -42.34588278 38.06451657 -42.3125 35.8125 C-42.27932781 34.28447569 -42.24483823 32.75647937 -42.20898438 31.22851562 C-42.12404175 27.48583011 -42.05723752 23.74320759 -42 20 C-39.03 20 -36.06 20 -33 20 C-32.67 26.93 -32.34 33.86 -32 41 C-22.76 41 -13.52 41 -4 41 C-3.51118909 32.85464229 -3.51118909 32.85464229 -7 27 C-9.9615696 25.5192152 -12.83506295 25.64685963 -16.125 25.4375 C-17.40632813 25.35371094 -18.68765625 25.26992188 -20.0078125 25.18359375 C-20.99523437 25.12300781 -21.98265625 25.06242187 -23 25 C-22.9716084 18.86741341 -21.88587011 14.68898467 -17.953125 9.92578125 C-13.09485863 5.13553061 -7.07684884 0 0 0 Z " fill="#0B0B0B" transform="translate(107,13)"/>
<path d="M0 0 C2.34919251 1.25849599 2.87297945 2.45260843 3.75 4.9375 C3.75 5.9275 3.75 6.9175 3.75 7.9375 C2.99074219 8.33582031 2.23148438 8.73414063 1.44921875 9.14453125 C0.45535156 9.67433594 -0.53851563 10.20414063 -1.5625 10.75 C-2.54863281 11.27207031 -3.53476563 11.79414063 -4.55078125 12.33203125 C-6.86665068 13.7094876 -8.48611001 14.93280591 -10.25 16.9375 C-9.51394531 17.02386719 -8.77789062 17.11023438 -8.01953125 17.19921875 C-1.7363457 18.10393107 1.88051983 18.7781931 5.75 23.9375 C9.47976019 31.39702039 6.75 40.59750266 6.75 48.9375 C-8.76 48.9375 -24.27 48.9375 -40.25 48.9375 C-41.02090943 45.85386228 -41.37320749 43.87106671 -41.36352539 40.81152344 C-41.36344986 40.01099548 -41.36337433 39.21046753 -41.36329651 38.38568115 C-41.35813522 37.53137512 -41.35297394 36.67706909 -41.34765625 35.796875 C-41.3462413 34.91469299 -41.34482635 34.03251099 -41.34336853 33.12359619 C-41.33778001 30.31152935 -41.32522961 27.4995427 -41.3125 24.6875 C-41.30748352 22.77864698 -41.30292087 20.86979272 -41.29882812 18.9609375 C-41.28781434 14.28642753 -41.27055758 9.61197735 -41.25 4.9375 C-34.625 3.8125 -34.625 3.8125 -31.25 4.9375 C-31.25 17.1475 -31.25 29.3575 -31.25 41.9375 C-22.01 41.6075 -12.77 41.2775 -3.25 40.9375 C-3.58 36.6475 -3.91 32.3575 -4.25 27.9375 C-8.42673343 25.84913328 -10.90211418 25.5679381 -15.5 25.3125 C-16.76328125 25.23773438 -18.0265625 25.16296875 -19.328125 25.0859375 C-20.29234375 25.03695312 -21.2565625 24.98796875 -22.25 24.9375 C-22.63299737 18.26377083 -20.38323851 14.97269522 -16.25 9.9375 C-6.42636023 -0.17851001 -6.42636023 -0.17851001 0 0 Z " fill="#141414" transform="translate(188.25,13.0625)"/>
<path d="M0 0 C6.24998582 0.62071777 9.99700009 4.4313588 14 9 C18.72793851 17.09547962 20 23.48951335 20 33 C10.76 33 1.52 33 -8 33 C-8.33 30.69 -8.66 28.38 -9 26 C-2.73 26 3.54 26 10 26 C7.02547662 17.634153 4.83814415 12.43448354 -3 8 C-1.125 1.125 -1.125 1.125 0 0 Z " fill="#111111" transform="translate(30,29)"/>
<path d="M0 0 C3.3 0 6.6 0 10 0 C9.98053311 5.01787717 9.92867687 10.03401191 9.84741211 15.05126953 C9.8242844 16.75625096 9.80984867 18.46137419 9.80444336 20.16650391 C9.79511488 22.62491687 9.75404475 25.08111578 9.70703125 27.5390625 C9.71293022 28.67379501 9.71293022 28.67379501 9.71894836 29.83145142 C9.56416071 35.50736924 8.05417968 38.01983949 4 42 C0.08729537 43.95635231 -4.7241978 43.3696659 -9 43 C-12.1875 41.5 -12.1875 41.5 -14 40 C-13.01 38.02 -12.02 36.04 -11 34 C-9.906875 34.20625 -8.81375 34.4125 -7.6875 34.625 C-3.9161599 35.40346525 -3.9161599 35.40346525 -1 33 C-0.66197325 30.45420623 -0.5112053 28.13850914 -0.48828125 25.5859375 C-0.47033005 24.85629791 -0.45237885 24.12665833 -0.43388367 23.37490845 C-0.37964868 21.04166465 -0.34584438 18.70862686 -0.3125 16.375 C-0.27933838 14.79424208 -0.2448498 13.21351139 -0.20898438 11.6328125 C-0.12391533 7.75535674 -0.05716822 3.87796345 0 0 Z " fill="#151515" transform="translate(128,33)"/>
<path d="M0 0 C2.46466096 3.69699144 2.25779399 5.59420931 2.265625 10.00390625 C2.26753845 10.68299545 2.2694519 11.36208466 2.27142334 12.06175232 C2.27278247 13.49486665 2.26910496 14.92799341 2.26074219 16.36108398 C2.25002167 18.55805985 2.26065453 20.75422114 2.2734375 22.95117188 C2.27211618 24.34375181 2.26955436 25.73633123 2.265625 27.12890625 C2.26336914 28.39806885 2.26111328 29.66723145 2.25878906 30.97485352 C2 34 2 34 0 36 C-3 36.3125 -3 36.3125 -6 36 C-6.66 35.01 -7.32 34.02 -8 33 C-9.65 33 -11.3 33 -13 33 C-13.33 26.07 -13.66 19.14 -14 12 C-15.32 11.34 -16.64 10.68 -18 10 C-19.64889766 11.64889766 -19.12998381 13.57345384 -19.1328125 15.83984375 C-19.13410156 16.82017578 -19.13539063 17.80050781 -19.13671875 18.81054688 C-19.13285156 19.84244141 -19.12898437 20.87433594 -19.125 21.9375 C-19.12886719 22.96552734 -19.13273438 23.99355469 -19.13671875 25.05273438 C-19.13542969 26.03435547 -19.13414062 27.01597656 -19.1328125 28.02734375 C-19.13168457 28.93218506 -19.13055664 29.83702637 -19.12939453 30.76928711 C-19.14496576 33.03895859 -19.14496576 33.03895859 -18 35 C-19.32 34.34 -20.64 33.68 -22 33 C-22.05814085 29.41673499 -22.09364357 25.83359162 -22.125 22.25 C-22.14175781 21.23421875 -22.15851563 20.2184375 -22.17578125 19.171875 C-22.18222656 18.1921875 -22.18867188 17.2125 -22.1953125 16.203125 C-22.20578613 15.30239258 -22.21625977 14.40166016 -22.22705078 13.47363281 C-21.98721676 10.86073144 -21.32312064 9.24335334 -20 7 C-13.45957447 7.61702128 -13.45957447 7.61702128 -11.125 9.5625 C-10.568125 10.2740625 -10.568125 10.2740625 -10 11 C-9.67 11 -9.34 11 -9 11 C-8.67 7.37 -8.34 3.74 -8 0 C-4.67212881 -1.1092904 -3.3006216 -1.01557588 0 0 Z M-4 0 C-8.5766385 4.5766385 -7.18350952 13.08605257 -7.1875 19.1875 C-7.19974609 20.18458984 -7.21199219 21.18167969 -7.22460938 22.20898438 C-7.22654297 23.16482422 -7.22847656 24.12066406 -7.23046875 25.10546875 C-7.23457764 25.97324951 -7.23868652 26.84103027 -7.24291992 27.73510742 C-7.14650592 30.28161291 -7.14650592 30.28161291 -5 33 C-2.4006002 31.41439772 -2.4006002 31.41439772 0 29 C0.68594624 26.01443973 0.68594624 26.01443973 0.48828125 22.703125 C0.47216797 21.49785156 0.45605469 20.29257812 0.43945312 19.05078125 C0.37661133 17.16939453 0.37661133 17.16939453 0.3125 15.25 C0.28994141 13.98027344 0.26738281 12.71054687 0.24414062 11.40234375 C0.18520639 8.26704227 0.10297079 5.13411405 0 2 C-1.32 1.34 -2.64 0.68 -4 0 Z " fill="#5368EC" transform="translate(266,28)"/>
<path d="M0 0 C0.89498199 -0.01606293 1.78996399 -0.03212585 2.71206665 -0.04867554 C6.82203397 -0.09323092 10.93183941 -0.13422314 15.04199219 -0.15722656 C17.20486236 -0.17374691 19.36767882 -0.2009847 21.53027344 -0.23925781 C24.65507221 -0.29426345 27.77858963 -0.31594077 30.90380859 -0.33056641 C31.86243805 -0.35323578 32.8210675 -0.37590515 33.80874634 -0.39926147 C40.4105733 -0.37867328 44.47724388 1.1149667 49.67724609 5.19287109 C46.66692866 6.12710754 45.81074342 6.2373702 42.67724609 5.19287109 C42.67724609 4.53287109 42.67724609 3.87287109 42.67724609 3.19287109 C38.17160718 2.09096985 33.70816714 1.97485876 29.09521484 1.87646484 C28.28103592 1.85568375 27.46685699 1.83490265 26.62800598 1.81349182 C24.0403343 1.74837646 21.45256556 1.68928902 18.86474609 1.63037109 C17.10497064 1.58714967 15.34520481 1.54353425 13.58544922 1.49951172 C9.28281301 1.39273429 4.98007967 1.29136092 0.67724609 1.19287109 C0.67724609 1.85287109 0.67724609 2.51287109 0.67724609 3.19287109 C-0.58087891 3.21349609 -1.83900391 3.23412109 -3.13525391 3.25537109 C-5.34968093 3.4311931 -5.34968093 3.4311931 -7.32275391 4.19287109 C-9.14537722 7.58449815 -9.14537722 7.58449815 -10.32275391 11.19287109 C-12.40087891 12.41552734 -12.40087891 12.41552734 -14.32275391 13.19287109 C-14.20433642 19.22530893 -14.08007625 25.25758773 -13.95043945 31.28979492 C-13.90717193 33.34119407 -13.86549115 35.39262734 -13.82543945 37.4440918 C-13.76753847 40.39561231 -13.7039013 43.34696241 -13.63916016 46.29833984 C-13.61409142 47.67048897 -13.61409142 47.67048897 -13.58851624 49.07035828 C-13.49228586 53.22211215 -13.35605076 57.14425958 -12.32275391 61.19287109 C-11.66275391 61.19287109 -11.00275391 61.19287109 -10.32275391 61.19287109 C-10.65275391 62.18287109 -10.98275391 63.17287109 -11.32275391 64.19287109 C-15.86391732 58.24605091 -17.07260388 53.69626855 -16.98681641 46.28662109 C-16.99399185 44.90041565 -16.99399185 44.90041565 -17.00131226 43.48620605 C-17.00469651 41.54319545 -16.99559799 39.60012675 -16.97460938 37.65722656 C-16.94782172 34.70035617 -16.97440666 31.7472811 -17.00634766 28.79052734 C-17.0030433 26.89338363 -16.99663652 24.99624227 -16.98681641 23.09912109 C-16.99693756 22.2249353 -17.00705872 21.35074951 -17.01748657 20.45007324 C-16.89942234 14.19908142 -15.2747417 10.05487929 -11.32275391 5.19287109 C-7.50871472 1.73362625 -5.11072825 0.08334376 0 0 Z " fill="#7080E6" transform="translate(229.32275390625,7.80712890625)"/>
<path d="M0 0 C6.75 -0.125 6.75 -0.125 9 1 C9 13.87 9 26.74 9 40 C7.68 40.66 6.36 41.32 5 42 C5.16242188 41.44183594 5.32484375 40.88367187 5.4921875 40.30859375 C7.92370855 29.25452496 5.59443016 16.24990696 5 5 C4.01 4.67 3.02 4.34 2 4 C1.34 5.32 0.68 6.64 0 8 C0 5.36 0 2.72 0 0 Z " fill="#5F71E4" transform="translate(232,22)"/>
<path d="M0 0 C1.67542976 0.28604898 3.34385343 0.61781233 5 1 C1.34225742 4.97126337 -1.4515336 7.6609749 -6.97943115 8.18911743 C-9.39224509 8.28122537 -11.79636104 8.30337313 -14.2109375 8.30078125 C-15.54047958 8.30720894 -15.54047958 8.30720894 -16.8968811 8.31376648 C-18.76783394 8.31949676 -20.63880906 8.32001965 -22.50976562 8.31567383 C-25.35846367 8.31251832 -28.20611803 8.33597359 -31.0546875 8.36132812 C-32.87760286 8.36360184 -34.700521 8.36430428 -36.5234375 8.36328125 C-37.79095352 8.37709587 -37.79095352 8.37709587 -39.08407593 8.39118958 C-44.46833091 8.34948592 -48.1901739 7.44368243 -53 5 C-51.0625 4.4375 -51.0625 4.4375 -49 4 C-48.67 4.33 -48.34 4.66 -48 5 C-46.58774954 5.0928726 -45.17091066 5.11746772 -43.75561523 5.11352539 C-42.40432777 5.11341209 -42.40432777 5.11341209 -41.02574158 5.11329651 C-39.5570034 5.10555458 -39.5570034 5.10555458 -38.05859375 5.09765625 C-36.56248314 5.09553383 -36.56248314 5.09553383 -35.03614807 5.09336853 C-31.83656876 5.08775114 -28.63705831 5.07519571 -25.4375 5.0625 C-23.27408955 5.05748724 -21.11067801 5.05292395 -18.94726562 5.04882812 C-13.63148675 5.03777607 -8.31574829 5.02102104 -3 5 C-2.690625 4.360625 -2.38125 3.72125 -2.0625 3.0625 C-1 1 -1 1 0 0 Z " fill="#6E7DE9" transform="translate(274,70)"/>
<path d="M0 0 C2.77827152 3.62383242 4.12081593 5.67549072 4.16113281 10.26269531 C4.17074036 11.14411194 4.1803479 12.02552856 4.19024658 12.93365479 C4.19449646 13.88882996 4.19874634 14.84400513 4.203125 15.828125 C4.20882507 16.80988708 4.21452515 17.79164917 4.22039795 18.80316162 C4.22985637 20.88455119 4.23638526 22.96595578 4.24023438 25.04736328 C4.24991843 28.22325029 4.2809252 31.39848432 4.3125 34.57421875 C4.31903218 36.59635032 4.32428181 38.61848653 4.328125 40.640625 C4.3404718 41.58770325 4.3528186 42.53478149 4.36553955 43.51055908 C4.34781786 48.78983963 3.89537932 52.39606022 1 57 C0.67 57 0.34 57 0 57 C0 55.35 0 53.7 0 52 C0.66 52 1.32 52 2 52 C2.04955876 46.12843039 2.08579487 40.25698345 2.10986328 34.38525391 C2.11990052 32.38913857 2.1335332 30.39303786 2.15087891 28.39697266 C2.17522735 25.52242413 2.18650605 22.64807059 2.1953125 19.7734375 C2.20563507 18.88570648 2.21595764 17.99797546 2.22659302 17.08334351 C2.22745957 12.26239283 1.70880141 8.56553219 0 4 C0 2.68 0 1.36 0 0 Z " fill="#5767D2" transform="translate(279,14)"/>
<path d="M0 0 C0.33 0 0.66 0 1 0 C1.02505615 1.21582764 1.0501123 2.43165527 1.07592773 3.68432617 C1.17024189 8.20379817 1.27040369 12.72312508 1.37231445 17.24243164 C1.41557258 19.19682415 1.45725398 21.15125222 1.49731445 23.10571289 C1.55523836 25.91824045 1.61886873 28.73059048 1.68359375 31.54296875 C1.70030624 32.41398727 1.71701874 33.2850058 1.73423767 34.18241882 C1.83274832 38.23478521 2.00519416 42.04555828 3 46 C3.66 46 4.32 46 5 46 C4.67 46.99 4.34 47.98 4 49 C-0.3678356 43.74801774 -0.54246642 39.69779722 -0.390625 33.0078125 C-0.38496521 32.06187225 -0.37930542 31.11593201 -0.37347412 30.1413269 C-0.35117571 27.13535858 -0.30099138 24.13060489 -0.25 21.125 C-0.22992656 19.08074644 -0.21167727 17.03647411 -0.1953125 14.9921875 C-0.15133228 9.99432735 -0.08234985 4.99736925 0 0 Z " fill="#5260E5" transform="translate(214,23)"/>
<path d="M0 0 C0.33 0 0.66 0 1 0 C1.0740719 4.37821909 1.12856375 8.75610782 1.16479492 13.13476562 C1.179896 14.62473909 1.20037858 16.11466801 1.22631836 17.60449219 C1.26264584 19.7442523 1.27971221 21.88342566 1.29296875 24.0234375 C1.3086792 25.31169434 1.32438965 26.59995117 1.34057617 27.92724609 C1.22818604 28.94125488 1.1157959 29.95526367 1 31 C-2 33 -2 33 -4.1875 32.625 C-4.785625 32.41875 -5.38375 32.2125 -6 32 C-5.19175781 31.45988281 -4.38351562 30.91976562 -3.55078125 30.36328125 C0.88474064 25.92775936 -0.21466777 19.02253271 -0.1875 13.1875 C-0.16236328 11.92228516 -0.13722656 10.65707031 -0.11132812 9.35351562 C-0.05249509 6.23536457 -0.01618494 3.11861633 0 0 Z " fill="#98ABFE" transform="translate(266,30)"/>
<path d="M0 0 C-0.33 0.66 -0.66 1.32 -1 2 C-2.32 2 -3.64 2 -5 2 C-6.21825857 7.9172559 -6.33647378 13.85751516 -6.5625 19.875 C-6.60568359 20.94492187 -6.64886719 22.01484375 -6.69335938 23.1171875 C-6.79892817 25.74467754 -6.90103791 28.37225422 -7 31 C-7.33 31 -7.66 31 -8 31 C-8 20.77 -8 10.54 -8 0 C-4.71023192 -1.09658936 -3.28696233 -0.79953138 0 0 Z " fill="#4E61E4" transform="translate(266,28)"/>
<path d="M0 0 C2.5 0.125 2.5 0.125 3.5 1.125 C3.58726223 2.90571246 3.60699041 4.6898314 3.59765625 6.47265625 C3.59282227 8.09204102 3.59282227 8.09204102 3.58789062 9.74414062 C3.57951172 10.88044922 3.57113281 12.01675781 3.5625 13.1875 C3.55798828 14.32767578 3.55347656 15.46785156 3.54882812 16.64257812 C3.53699747 19.47010351 3.5205141 22.2975264 3.5 25.125 C3.17 25.125 2.84 25.125 2.5 25.125 C2.17 18.195 1.84 11.265 1.5 4.125 C0.51 3.795 -0.48 3.465 -1.5 3.125 C-2.16 4.445 -2.82 5.765 -3.5 7.125 C-3.54254356 5.12545254 -3.54080783 3.12458364 -3.5 1.125 C-2.5 0.125 -2.5 0.125 0 0 Z " fill="#EEF4FF" transform="translate(235.5,22.875)"/>
<path d="M0 0 C0.66 0.33 1.32 0.66 2 1 C-2.29 5.29 -6.58 9.58 -11 14 C-11 10.30159372 -10.17133056 9.68584567 -7.75 7 C-7.14671875 6.319375 -6.5434375 5.63875 -5.921875 4.9375 C-4.06233388 3.06284066 -2.15205789 1.52358081 0 0 Z " fill="#535353" transform="translate(180,16)"/>
<path d="M0 0 C1.67542976 0.28604898 3.34385343 0.61781233 5 1 C-0.14285714 6.57142857 -0.14285714 6.57142857 -4 7 C-4.33 6.34 -4.66 5.68 -5 5 C-4.34 5 -3.68 5 -3 5 C-2.5359375 4.0409375 -2.5359375 4.0409375 -2.0625 3.0625 C-1 1 -1 1 0 0 Z " fill="#5C6FEF" transform="translate(274,70)"/>
<path d="M0 0 C1.01126953 0.23009766 1.01126953 0.23009766 2.04296875 0.46484375 C5.46877952 1.08483857 8.83893447 1.3352574 12.3125 1.5625 C13.56675781 1.64628906 14.82101563 1.73007813 16.11328125 1.81640625 C17.54220703 1.90728516 17.54220703 1.90728516 19 2 C19 2.33 19 2.66 19 3 C16.39521117 3.0809313 13.79293347 3.14045434 11.1875 3.1875 C10.08051758 3.22520508 10.08051758 3.22520508 8.95117188 3.26367188 C3.45025238 3.33834499 3.45025238 3.33834499 0.98828125 1.48828125 C0.66214844 0.99714844 0.33601562 0.50601563 0 0 Z " fill="#6375E5" transform="translate(221,74)"/>
<path d="M0 0 C0.33 0 0.66 0 1 0 C2.19287411 3.87684087 3 6.91621923 3 11 C3.66 11 4.32 11 5 11 C4.67 11.99 4.34 12.98 4 14 C0.07260562 9.09075703 -0.43177893 6.26079448 0 0 Z " fill="#6674E2" transform="translate(214,58)"/>
<path d="M0 0 C0 1.65 0 3.3 0 5 C-1.65 5.33 -3.3 5.66 -5 6 C-5 5.01 -5 4.02 -5 3 C-1.55555556 0 -1.55555556 0 0 0 Z " fill="#B8C7FD" transform="translate(266,57)"/>
<path d="M0 0 C2.83374881 3.20336822 3.5205537 5.78087253 4 10 C3.01 9.67 2.02 9.34 1 9 C0.67 6.03 0.34 3.06 0 0 Z " fill="#6A79E3" transform="translate(279,14)"/>
<path d="M0 0 C0.66 0.66 1.32 1.32 2 2 C1.79107816 5.27310883 1.56305786 7.32433057 -0.5625 9.875 C-1.036875 10.24625 -1.51125 10.6175 -2 11 C-2 9.35 -2 7.7 -2 6 C-1.34 6 -0.68 6 0 6 C0 4.02 0 2.04 0 0 Z " fill="#6B7AE5" transform="translate(281,60)"/>
<path d="M0 0 C-0.33 0.66 -0.66 1.32 -1 2 C-2.32 2 -3.64 2 -5 2 C-5.33 3.98 -5.66 5.96 -6 8 C-6.33 8 -6.66 8 -7 8 C-7.33 5.36 -7.66 2.72 -8 0 C-4.71023192 -1.09658936 -3.28696233 -0.79953138 0 0 Z " fill="#7587F2" transform="translate(266,28)"/>
<path d="M0 0 C0.66 0.33 1.32 0.66 2 1 C-0.64 3.64 -3.28 6.28 -6 9 C-6.66 8.67 -7.32 8.34 -8 8 C-5.33333333 5.33333333 -2.66666667 2.66666667 0 0 Z " fill="#535353" transform="translate(96,17)"/>
<path d="M0 0 C1.2065625 0.0309375 1.2065625 0.0309375 2.4375 0.0625 C2.4375 1.0525 2.4375 2.0425 2.4375 3.0625 C1.1175 3.0625 -0.2025 3.0625 -1.5625 3.0625 C-2.2225 4.3825 -2.8825 5.7025 -3.5625 7.0625 C-3.60504356 5.06295254 -3.60330783 3.06208364 -3.5625 1.0625 C-2.5625 0.0625 -2.5625 0.0625 0 0 Z " fill="#E2EEFE" transform="translate(235.5625,22.9375)"/>
<path d="M0 0 C1.65 0.33 3.3 0.66 5 1 C4.38125 1.2475 3.7625 1.495 3.125 1.75 C0.64931313 3.20628639 0.04874998 4.37812506 -1 7 C-1.66 7 -2.32 7 -3 7 C-2.38722388 4.03824877 -1.74627478 2.61941217 0 0 Z " fill="#595959" transform="translate(54,67)"/>
</svg>
