<?xml version="1.0" encoding="UTF-8"?>
<svg version="1.1" xmlns="http://www.w3.org/2000/svg" width="415" height="121">
<path d="M0 0 C1.34731453 -0.01925285 1.34731453 -0.01925285 2.72184753 -0.03889465 C3.69575943 -0.04628159 4.66967133 -0.05366852 5.6730957 -0.0612793 C6.67468216 -0.06935104 7.67626862 -0.07742279 8.70820618 -0.08573914 C10.83247137 -0.09958772 12.95675889 -0.1103064 15.08105469 -0.11816406 C18.31854976 -0.13533718 21.55501322 -0.17921219 24.79223633 -0.22338867 C26.85668195 -0.23351906 28.92113625 -0.24203408 30.9855957 -0.2487793 C31.94938644 -0.26628738 32.91317719 -0.28379547 33.90617371 -0.30183411 C39.71433059 -0.28324253 44.23243422 0.1761348 48.66137695 4.17700195 C53.72071643 9.79972044 54.40643558 15.1748469 54.32543945 22.52075195 C54.33022308 23.48928101 54.33500671 24.45781006 54.3399353 25.45568848 C54.34332087 27.49285517 54.33421309 29.5300772 54.31323242 31.56713867 C54.28644774 34.66880506 54.31302631 37.76685312 54.3449707 40.8684082 C54.34166637 42.85669737 54.33525964 44.8449843 54.32543945 46.83325195 C54.34062119 48.21015198 54.34062119 48.21015198 54.35610962 49.61486816 C54.24171094 55.96242321 52.77190429 60.2795168 48.66137695 65.17700195 C42.45022585 70.22356222 36.8607443 70.33395656 29.10668945 70.3449707 C27.87702957 70.3499633 27.87702957 70.3499633 26.62252808 70.35505676 C24.8928076 70.36010589 23.16307744 70.36246571 21.43334961 70.36230469 C18.80216235 70.36448885 16.17139627 70.38265944 13.5402832 70.40161133 C11.85408671 70.40454623 10.16788824 70.40653038 8.48168945 70.4074707 C7.31260544 70.41824898 7.31260544 70.41824898 6.11990356 70.429245 C0.02817807 70.40405827 -5.31330383 69.92614127 -10.08862305 65.80200195 C-14.34442958 60.83689433 -16.43497081 57.69649484 -16.49975586 51.0703125 C-16.5093634 50.27235764 -16.51897095 49.47440277 -16.52886963 48.65226746 C-16.53311951 47.79804703 -16.53736938 46.9438266 -16.54174805 46.0637207 C-16.54744812 45.17594437 -16.55314819 44.28816803 -16.559021 43.37348938 C-16.56845604 41.49656358 -16.57499903 39.61962133 -16.57885742 37.74267578 C-16.58855282 34.88520082 -16.619586 32.02844856 -16.65112305 29.17114258 C-16.65765477 27.34367287 -16.66290458 25.51619804 -16.66674805 23.6887207 C-16.67909485 22.84057297 -16.69144165 21.99242523 -16.7041626 21.11857605 C-16.68133436 14.97690019 -15.82828366 9.96054233 -11.5847168 5.21606445 C-10.98788086 4.74942383 -10.39104492 4.2827832 -9.77612305 3.80200195 C-9.17670898 3.31989258 -8.57729492 2.8377832 -7.9597168 2.34106445 C-5.16651298 0.3353422 -3.391793 0.04217816 0 0 Z " fill="#4A62FD" transform="translate(40.338623046875,25.822998046875)"/>
<path d="M0 0 C3.63 0 7.26 0 11 0 C11 6.93 11 13.86 11 21 C14.63 21 18.26 21 22 21 C21.505 19.515 21.505 19.515 21 18 C20.56713052 12.48091407 21.18556288 7.78777809 24 3 C28.46893222 -0.66681618 33.58791182 -0.50923496 39.15234375 -0.34375 C43.11350787 0.13441522 45.17969169 1.17969169 48 4 C50.89236134 8.75840091 51.43055876 12.48350543 50.5703125 17.85546875 C49.35293432 22.43314423 47.31973036 25.20561881 43.28857422 27.63208008 C39.66004755 29.1414071 36.98689143 29.42506877 33.0703125 29.51171875 C31.78125 29.54716797 30.4921875 29.58261719 29.1640625 29.61914062 C27.81771358 29.64223493 26.47135928 29.66501755 25.125 29.6875 C23.75517629 29.72070883 22.38538308 29.75520175 21.015625 29.79101562 C17.6771659 29.87330159 14.33896315 29.94251928 11 30 C10.7431543 30.6199585 10.48630859 31.23991699 10.22167969 31.87866211 C9.87524414 32.69085205 9.52880859 33.50304199 9.171875 34.33984375 C8.8325293 35.14542725 8.49318359 35.95101074 8.14355469 36.78100586 C6.76410645 39.45773622 5.2053339 41.10777775 2.4609375 42.4140625 C-1.05281115 43.25066932 -4.5303811 43.3884087 -8.125 43.4375 C-8.81819336 43.44789307 -9.51138672 43.45828613 -10.22558594 43.46899414 C-14.65536065 43.39182964 -17.46236831 42.66772226 -21 40 C-24.67764008 36.11220906 -27.05380409 32.32389688 -26.96484375 26.828125 C-26.54844486 22.31587518 -25.63385892 18.24803319 -24 14 C-20.7 14 -17.4 14 -14 14 C-14.165 14.94875 -14.33 15.8975 -14.5 16.875 C-15.87417123 25.56784723 -15.87417123 25.56784723 -13.375 33.625 C-10.27095134 35.42208081 -8.53343747 35.58890625 -5 35 C-2.48292843 33.73637301 -2.48292843 33.73637301 -1 31 C0.28869165 24.06317582 0.12665561 16.90250718 0.0625 9.875 C0.05798828 8.91851562 0.05347656 7.96203125 0.04882812 6.9765625 C0.03720038 4.65101378 0.01927208 2.32549793 0 0 Z M31 9 C30.59705453 11.59684844 30.59705453 11.59684844 30.75 14.5 C30.76546875 15.4796875 30.7809375 16.459375 30.796875 17.46875 C30.8405357 19.99293435 30.8405357 19.99293435 32 22 C35.38266921 21.7181109 36.81072018 21.16935563 39.375 18.875 C41.50283572 15.11036757 41.08689742 13.11468309 40 9 C39.34 8.34 38.68 7.68 38 7 C33.95377498 6.63019987 33.95377498 6.63019987 31 9 Z " fill="#FBFBFB" transform="translate(133,51)"/>
<path d="M0 0 C0.66 2.31 1.32 4.62 2 7 C1.16855469 7.39832031 0.33710938 7.79664063 -0.51953125 8.20703125 C-1.60621094 8.73683594 -2.69289063 9.26664063 -3.8125 9.8125 C-4.89144531 10.33457031 -5.97039062 10.85664062 -7.08203125 11.39453125 C-9.56579702 12.76110117 -11.1799378 13.87340101 -13 16 C-12.41992188 16.02578125 -11.83984375 16.0515625 -11.2421875 16.078125 C-4.70929836 16.55246019 -0.72088137 18.27911863 4 23 C4.31884766 25.52197266 4.31884766 25.52197266 4.4140625 28.6640625 C4.44967285 29.6742041 4.4852832 30.6843457 4.52197266 31.72509766 C4.55597168 33.01206543 4.5899707 34.2990332 4.625 35.625 C4.74875 39.70875 4.8725 43.7925 5 48 C-7.87 48 -20.74 48 -34 48 C-34 49.98 -34 51.96 -34 54 C-36.03993908 57.6578218 -37.50419262 59.66946174 -41 62 C-43.7421875 62.30078125 -43.7421875 62.30078125 -46.875 62.3125 C-47.90367187 62.32925781 -48.93234375 62.34601563 -49.9921875 62.36328125 C-53.3553662 61.95707915 -55.2479883 60.92437719 -58 59 C-57.01 57.02 -56.02 55.04 -55 53 C-51.7 53.33 -48.4 53.66 -45 54 C-44.00866392 50.03465569 -43.88565737 46.89960155 -43.90234375 42.828125 C-43.9037587 42.1457074 -43.90517365 41.46328979 -43.90663147 40.76019287 C-43.91220916 38.59008316 -43.92475746 36.4200783 -43.9375 34.25 C-43.94251789 32.77474108 -43.94708029 31.29948053 -43.95117188 29.82421875 C-43.96217125 26.21611202 -43.97942047 22.60806625 -44 19 C-40.7 19 -37.4 19 -34 19 C-33.67 25.93 -33.34 32.86 -33 40 C-19.14 40.495 -19.14 40.495 -5 41 C-4.6591805 29.47956318 -4.6591805 29.47956318 -10 25 C-13.49272252 24.30220618 -13.49272252 24.30220618 -17.25 24.25 C-19.14492188 24.16492187 -19.14492188 24.16492187 -21.078125 24.078125 C-22.52445312 24.03945313 -22.52445312 24.03945313 -24 24 C-24.54039441 18.9563188 -24.4683191 16.03936152 -21.4375 11.875 C-16.24051589 5.65084726 -8.78636057 -2.84264607 0 0 Z " fill="#FCFCFC" transform="translate(296,32)"/>
<path d="M0 0 C3 5.75 3 5.75 3 8 C1.75283203 8.58007812 1.75283203 8.58007812 0.48046875 9.171875 C-1.14955078 9.95304687 -1.14955078 9.95304687 -2.8125 10.75 C-3.89144531 11.26046875 -4.97039062 11.7709375 -6.08203125 12.296875 C-8.9271395 13.95747366 -10.2869693 15.23510835 -12 18 C-11.41992188 17.95359375 -10.83984375 17.9071875 -10.2421875 17.859375 C-4.61796043 17.59950972 -1.35202351 18.06245492 3 22 C6 28 6 28 6 49 C-9.84 49 -25.68 49 -42 49 C-42 34.48 -42 19.96 -42 5 C-38.7 5 -35.4 5 -32 5 C-32 16.88 -32 28.76 -32 41 C-23.09 41 -14.18 41 -5 41 C-4.58081785 33.35774381 -4.58081785 33.35774381 -7 27 C-10.31544299 25.89485234 -13.20410111 25.67892369 -16.6875 25.4375 C-17.86699219 25.35371094 -19.04648437 25.26992188 -20.26171875 25.18359375 C-21.61716797 25.09271484 -21.61716797 25.09271484 -23 25 C-23.66353932 21.38069461 -23.88665949 19.51215678 -23 16 C-21.37529021 13.69256642 -19.83914191 11.73537346 -17.9375 9.6875 C-17.23983521 8.93291504 -17.23983521 8.93291504 -16.52807617 8.16308594 C-12.03427958 3.58919282 -6.76122187 -0.81954205 0 0 Z " fill="#FCFCFC" transform="translate(378,31)"/>
<path d="M0 0 C3.3 0 6.6 0 10 0 C10.09940876 4.71388705 10.17172034 9.42715442 10.21972656 14.1418457 C10.23975347 15.74319091 10.26698354 17.3444638 10.30175781 18.94555664 C10.35067419 21.25685537 10.37305711 23.56718154 10.390625 25.87890625 C10.41127014 26.58648575 10.43191528 27.29406525 10.45318604 28.02308655 C10.45563852 33.54441406 9.02104928 36.55195252 6 41 C2.86336801 43.37861259 -0.13956386 43.26930218 -4 43.25 C-5.546875 43.25773437 -5.546875 43.25773437 -7.125 43.265625 C-9.94597278 43.00499165 -11.60145718 42.45296344 -14 41 C-13.25 36.25 -13.25 36.25 -11 34 C-8.8359375 33.8046875 -8.8359375 33.8046875 -6.375 33.875 C-5.55773437 33.89304688 -4.74046875 33.91109375 -3.8984375 33.9296875 C-3.27195312 33.95289063 -2.64546875 33.97609375 -2 34 C-0.52793987 31.05587973 -0.76192808 28.03714085 -0.68359375 24.8046875 C-0.66281265 24.09724396 -0.64203156 23.38980042 -0.62062073 22.66091919 C-0.55518922 20.39904575 -0.49627026 18.13705538 -0.4375 15.875 C-0.39430867 14.34243578 -0.35069418 12.80988343 -0.30664062 11.27734375 C-0.19951445 7.51834927 -0.0982291 3.75923708 0 0 Z " fill="#FBFBFB" transform="translate(316,51)"/>
<path d="M0 0 C5.96427743 0.29094036 9.01726814 2.87120218 13 7 C19.46588236 14.94379832 21 22.94488856 21 33 C11.43 33 1.86 33 -8 33 C-8.33 30.69 -8.66 28.38 -9 26 C-2.73 26 3.54 26 10 26 C7.48456257 17.14128558 4.81975531 12.89570151 -3 8 C-2.01 5.36 -1.02 2.72 0 0 Z " fill="#FCFCFC" transform="translate(217,47)"/>
<path d="M0 0 C2.5 0.125 2.5 0.125 3.5 1.125 C3.61340974 3.84054392 3.6641802 6.52970043 3.66796875 9.24609375 C3.67129715 10.06118912 3.67462555 10.87628448 3.67805481 11.71607971 C3.68312742 13.44360793 3.68546303 15.17114598 3.68530273 16.89868164 C3.68748792 19.54785245 3.70563621 22.19660616 3.72460938 24.84570312 C3.72754344 26.5208319 3.72952815 28.19596267 3.73046875 29.87109375 C3.73765427 30.66696396 3.74483978 31.46283417 3.75224304 32.28282166 C3.72882227 37.89617773 3.72882227 37.89617773 1.5 40.125 C-2.03571429 39.58928571 -2.03571429 39.58928571 -3.5 38.125 C-3.60099488 35.39775721 -3.63970529 32.69637477 -3.6328125 29.96875 C-3.63376923 29.15128296 -3.63472595 28.33381592 -3.63571167 27.49157715 C-3.63639345 25.75984622 -3.63453929 24.02811276 -3.63037109 22.29638672 C-3.62502279 19.63633518 -3.63031612 16.9764525 -3.63671875 14.31640625 C-3.63605797 12.63802046 -3.6347768 10.95963477 -3.6328125 9.28125 C-3.63483673 8.48021851 -3.63686096 7.67918701 -3.63894653 6.85388184 C-3.61042245 0.18052112 -3.61042245 0.18052112 0 0 Z " fill="#FAFBFE" transform="translate(46.5,40.875)"/>
<path d="M0 0 C4.55555556 0.55555556 4.55555556 0.55555556 6 2 C6.21832989 6.39998945 6.18579146 10.80534812 6.18530273 15.21020508 C6.18748751 17.42483782 6.20563531 19.63897123 6.22460938 21.85351562 C6.22754356 23.25520662 6.22952819 24.6569 6.23046875 26.05859375 C6.23457764 27.34048584 6.23868652 28.62237793 6.24291992 29.94311523 C6 33 6 33 4 35 C-0.55555556 34.44444444 -0.55555556 34.44444444 -2 33 C-2.21832989 28.60001055 -2.18579146 24.19465188 -2.18530273 19.78979492 C-2.18748751 17.57516218 -2.20563531 15.36102877 -2.22460938 13.14648438 C-2.22754356 11.74479338 -2.22952819 10.3431 -2.23046875 8.94140625 C-2.23457764 7.65951416 -2.23868652 6.37762207 -2.24291992 5.05688477 C-2 2 -2 2 0 0 Z " fill="#BBC4FE" transform="translate(72,46)"/>
<path d="M0 0 C2.41816166 2.41816166 1.18547019 8.68777819 1.1875 11.9375 C1.19974609 12.96552734 1.21199219 13.99355469 1.22460938 15.05273438 C1.22654297 16.03435547 1.22847656 17.01597656 1.23046875 18.02734375 C1.23457764 18.93218506 1.23868652 19.83702637 1.24291992 20.76928711 C1 23 1 23 -1 25 C-2.65 24.67 -4.3 24.34 -6 24 C-6 16.08 -6 8.16 -6 0 C-3.49749232 -1.25125384 -2.59701335 -0.83774624 0 0 Z " fill="#E3E7FE" transform="translate(63,56)"/>
<path d="M0 0 C3.0625 -0.25 3.0625 -0.25 6 0 C7 1 7 1 7.0625 4.5625 C7.041875 5.696875 7.02125 6.83125 7 8 C4.69 8 2.38 8 0 8 C-1.125 5.6875 -1.125 5.6875 -2 3 C-1.34 2.01 -0.68 1.02 0 0 Z " fill="#F9F9F9" transform="translate(122,43)"/>
</svg>
